<?xml version="1.0" standalone="no"?>
<!DOCTYPE svg PUBLIC "-//W3C//DTD SVG 20010904//EN"
 "http://www.w3.org/TR/2001/REC-SVG-20010904/DTD/svg10.dtd">
<svg version="1.0" xmlns="http://www.w3.org/2000/svg"
 width="124.000000pt" height="124.000000pt" viewBox="0 0 124.000000 124.000000"
 preserveAspectRatio="xMidYMid meet">

<g transform="translate(0.000000,124.000000) scale(0.100000,-0.100000)"
fill="#000000" stroke="none">
<path d="M919 1210 c-26 -29 -79 -42 -79 -20 0 6 -9 10 -20 10 -15 0 -20 -7
-20 -28 0 -36 -37 -72 -73 -72 -27 0 -38 -22 -17 -35 22 -14 10 -60 -22 -87
l-33 -28 33 -26 c23 -18 32 -34 32 -55 0 -16 -4 -29 -10 -29 -5 0 -10 -9 -10
-20 0 -15 7 -20 28 -20 36 0 72 -37 72 -73 0 -20 5 -27 20 -27 11 0 20 5 20
10 0 6 13 10 29 10 21 0 37 -9 55 -32 l26 -33 28 33 c27 32 73 44 87 22 13
-21 35 -10 35 18 0 36 37 72 73 72 20 0 27 5 27 20 0 11 -4 20 -10 20 -22 0
-9 53 20 80 30 28 39 50 20 50 -19 0 -50 40 -50 65 0 14 5 25 10 25 6 0 10 9
10 20 0 15 -7 20 -26 20 -35 0 -74 38 -74 73 0 20 -5 27 -20 27 -11 0 -20 -4
-20 -10 0 -5 -11 -10 -25 -10 -25 0 -65 31 -65 50 0 19 -25 9 -51 -20z m116
-113 c95 -54 113 -189 36 -266 -106 -106 -291 -30 -291 119 0 129 142 211 255
147z"/>
<path d="M926 974 c-9 -8 -16 -19 -16 -23 0 -9 33 -41 43 -41 9 0 37 30 37 40
0 5 -7 16 -16 24 -8 9 -19 16 -24 16 -5 0 -16 -7 -24 -16z"/>
<path d="M165 1020 c-35 -14 -64 -49 -70 -82 -9 -49 -1 -610 9 -630 7 -16 2
-18 -48 -18 -31 0 -56 -4 -56 -8 0 -17 30 -69 51 -88 20 -18 44 -19 569 -19
525 0 549 1 569 19 21 19 51 71 51 88 0 4 -25 8 -56 8 -50 0 -55 2 -48 18 8
17 19 302 11 302 -2 0 -18 -7 -35 -16 l-32 -15 0 -113 c0 -74 -4 -116 -12
-124 -17 -17 -879 -17 -896 0 -17 17 -17 579 0 596 9 9 69 12 210 12 l198 0 0
24 c0 13 3 31 6 40 5 14 -16 16 -197 15 -112 0 -213 -4 -224 -9z"/>
</g>
</svg>
