<?xml version="1.0" encoding="UTF-8"?>
<svg version="1.1" xmlns="http://www.w3.org/2000/svg" width="142" height="122">
<path d="M0 0 C12.91826395 10.33135719 23.08185219 23.31043234 26 40 C27.58176175 57.84157347 25.19145864 74.14460613 13.96484375 88.625 C6.00533793 97.83388152 -2.56741059 104.70056467 -14 109 C-14.78117187 109.3196875 -15.56234375 109.639375 -16.3671875 109.96875 C-31.53483952 115.20231683 -49.42836774 112.8962961 -63.87109375 106.78515625 C-79.03896844 99.36257927 -90.22612934 85.69973819 -96 70 C-100.94786276 53.69809426 -98.82726355 36.38389207 -91.3125 21.3125 C-83.72032702 8.22123431 -72.11560638 -1.69156683 -58 -7 C-57.21882813 -7.3196875 -56.43765625 -7.639375 -55.6328125 -7.96875 C-37.77649325 -14.13003588 -15.35445302 -10.62492952 0 0 Z " fill="#73108B" transform="translate(106,10)"/>
<path d="M0 0 C4.69855629 0.35176357 7.32568233 2.48736771 10.9375 5.375 C11.48946045 5.81183105 12.0414209 6.24866211 12.61010742 6.69873047 C13.79014435 7.63342956 14.96722825 8.57186676 16.14160156 9.51367188 C18.71650192 11.57305093 21.31404426 13.60304028 23.91040039 15.63525391 C26.61163347 17.75089044 29.30583822 19.87536867 32 22 C31.80982126 25.78319853 31.10737786 26.89898412 28.296875 29.54296875 C27.12512772 30.43844768 25.94205151 31.31923311 24.75 32.1875 C23.47500913 33.14419645 22.2002757 34.10123608 20.92578125 35.05859375 C19.94859131 35.78344971 19.94859131 35.78344971 18.95166016 36.52294922 C17.04753544 37.96402434 15.19790253 39.45379143 13.35546875 40.97265625 C12.49260254 41.67322144 12.49260254 41.67322144 11.61230469 42.38793945 C10.51725061 43.27850895 9.43022116 44.17906163 8.35253906 45.09057617 C6.83984375 46.296875 6.83984375 46.296875 4 48 C2.35 47.67 0.7 47.34 -1 47 C-1 42.38 -1 37.76 -1 33 C-2.88489136 33.0314209 -2.88489136 33.0314209 -4.80786133 33.06347656 C-9.46497221 33.13581499 -14.12203334 33.18177734 -18.77954102 33.21972656 C-20.79622749 33.23985609 -22.81285551 33.26716237 -24.8293457 33.30175781 C-27.72622082 33.35021722 -30.62232515 33.37295499 -33.51953125 33.390625 C-34.42274612 33.41127014 -35.325961 33.43191528 -36.25654602 33.45318604 C-42.49269846 33.45542728 -42.49269846 33.45542728 -45.06762695 31.14379883 C-46.2389755 28.45052529 -46.39895234 26.37166107 -46.375 23.4375 C-46.38273437 22.48746094 -46.39046875 21.53742187 -46.3984375 20.55859375 C-45.929177 17.54520528 -45.36112424 16.85015803 -43 15 C-41.04475403 14.63923645 -41.04475403 14.63923645 -38.80395508 14.65942383 C-37.54298759 14.65976372 -37.54298759 14.65976372 -36.25654602 14.66011047 C-35.35333115 14.67559433 -34.45011627 14.69107819 -33.51953125 14.70703125 C-32.59154221 14.71127609 -31.66355316 14.71552094 -30.70744324 14.71989441 C-27.74216757 14.73669338 -24.7775704 14.77434784 -21.8125 14.8125 C-19.80274419 14.82754526 -17.79297773 14.84123394 -15.78320312 14.85351562 C-10.85520714 14.88660092 -5.92771862 14.93839167 -1 15 C-1.01160156 14.00097656 -1.02320313 13.00195312 -1.03515625 11.97265625 C-1.04417969 10.68230469 -1.05320313 9.39195313 -1.0625 8.0625 C-1.07410156 6.77472656 -1.08570313 5.48695312 -1.09765625 4.16015625 C-1 1 -1 1 0 0 Z " fill="#FDFDFE" transform="translate(78,41)"/>
</svg>
