<?xml version="1.0" standalone="no"?>
<!DOCTYPE svg PUBLIC "-//W3C//DTD SVG 20010904//EN"
 "http://www.w3.org/TR/2001/REC-SVG-20010904/DTD/svg10.dtd">
<svg version="1.0" xmlns="http://www.w3.org/2000/svg"
 width="100.000000pt" height="100.000000pt" viewBox="0 0 100.000000 100.000000"
 preserveAspectRatio="xMidYMid meet">

<g transform="translate(0.000000,100.000000) scale(0.100000,-0.100000)"
fill="#000000" stroke="none">
<path d="M377 822 l-137 -137 0 -185 0 -185 138 -138 c75 -75 145 -137 154
-137 9 0 24 7 32 16 14 14 16 68 16 444 0 376 -2 430 -16 444 -8 9 -23 16 -32
16 -10 0 -79 -62 -155 -138z"/>
<path d="M784 775 c-4 -11 7 -27 34 -51 22 -19 53 -60 69 -92 23 -47 28 -70
28 -132 0 -62 -5 -85 -28 -132 -16 -32 -47 -73 -69 -92 -27 -24 -38 -40 -34
-51 8 -22 31 -8 85 50 66 71 86 124 86 225 0 101 -20 154 -86 225 -54 58 -77
72 -85 50z"/>
<path d="M714 675 c-4 -9 4 -24 21 -37 34 -27 65 -92 65 -138 0 -46 -31 -111
-65 -138 -17 -13 -25 -28 -21 -37 8 -22 18 -19 55 17 51 49 65 85 65 158 0 73
-14 109 -65 158 -37 36 -47 39 -55 17z"/>
<path d="M60 660 c-18 -18 -20 -33 -20 -160 0 -171 5 -180 100 -180 l60 0 0
180 0 180 -60 0 c-47 0 -64 -4 -80 -20z"/>
<path d="M646 575 c-3 -9 3 -24 14 -35 11 -11 20 -29 20 -40 0 -11 -9 -29 -20
-40 -19 -19 -18 -50 1 -50 16 0 48 39 55 65 8 33 -2 71 -26 95 -24 24 -36 25
-44 5z"/>
</g>
</svg>
