<?xml version="1.0" standalone="no"?>
<!DOCTYPE svg PUBLIC "-//W3C//DTD SVG 20010904//EN"
 "http://www.w3.org/TR/2001/REC-SVG-20010904/DTD/svg10.dtd">
<svg version="1.0" xmlns="http://www.w3.org/2000/svg"
 width="100.000000pt" height="100.000000pt" viewBox="0 0 100.000000 100.000000"
 preserveAspectRatio="xMidYMid meet">

<g transform="translate(0.000000,100.000000) scale(0.100000,-0.100000)"
fill="#000000" stroke="none">
<path d="M10 982 c0 -19 958 -982 978 -982 30 0 7 41 -63 110 l-74 74 40 44
c23 24 55 73 72 110 29 61 32 75 31 162 0 124 -25 188 -102 271 -53 58 -123
105 -136 92 -15 -15 -3 -32 45 -63 65 -42 114 -108 139 -189 40 -126 17 -240
-68 -346 -39 -48 -50 -50 -83 -19 l-28 27 28 36 c45 58 63 101 68 166 6 72 -7
128 -45 183 -31 47 -106 107 -122 97 -19 -12 -9 -30 34 -62 108 -79 125 -249
37 -354 l-30 -34 -37 37 -37 36 26 32 c33 39 41 69 32 117 -11 63 -98 129
-120 93 -3 -5 9 -19 28 -30 61 -36 74 -99 31 -150 l-27 -31 -43 42 -44 43 0
201 c0 165 -3 204 -16 223 -29 42 -59 29 -158 -68 l-92 -90 -119 120 c-118
118 -145 137 -145 102z"/>
<path d="M207 693 c-4 -3 -7 -90 -7 -193 l0 -186 128 -127 c99 -97 135 -127
155 -127 48 0 57 29 57 185 l0 140 -158 158 c-86 86 -160 157 -163 157 -3 0
-9 -3 -12 -7z"/>
<path d="M20 660 c-18 -18 -20 -33 -20 -160 0 -171 5 -180 100 -180 l60 0 0
180 0 180 -60 0 c-47 0 -64 -4 -80 -20z"/>
</g>
</svg>
