<?xml version="1.0" standalone="no"?>
<!DOCTYPE svg PUBLIC "-//W3C//DTD SVG 20010904//EN"
 "http://www.w3.org/TR/2001/REC-SVG-20010904/DTD/svg10.dtd">
<svg version="1.0" xmlns="http://www.w3.org/2000/svg"
 width="72.000000pt" height="72.000000pt" viewBox="0 0 72.000000 72.000000"
 preserveAspectRatio="xMidYMid meet">

<g transform="translate(0.000000,72.000000) scale(0.100000,-0.100000)"
fill="#000000" stroke="none">
<path d="M343 640 c-5 -18 -14 -20 -74 -20 -38 0 -79 -5 -92 -12 -12 -6 -28
-14 -35 -17 -8 -3 -13 -10 -13 -16 1 -6 85 -10 231 -10 146 0 230 4 231 10 0
6 -5 13 -13 16 -7 3 -23 11 -35 17 -13 7 -54 12 -92 12 -60 0 -69 2 -74 20 -3
11 -10 20 -17 20 -7 0 -14 -9 -17 -20z"/>
<path d="M154 468 c3 -18 13 -103 21 -188 12 -119 20 -158 32 -167 12 -9 60
-13 154 -13 112 0 141 3 153 16 9 8 16 18 16 20 0 11 30 291 35 327 l5 37
-210 0 -211 0 5 -32z"/>
</g>
</svg>
