<?xml version="1.0" standalone="no"?>
<!DOCTYPE svg PUBLIC "-//W3C//DTD SVG 20010904//EN"
 "http://www.w3.org/TR/2001/REC-SVG-20010904/DTD/svg10.dtd">
<svg version="1.0" xmlns="http://www.w3.org/2000/svg"
 width="124.000000pt" height="124.000000pt" viewBox="0 0 124.000000 124.000000"
 preserveAspectRatio="xMidYMid meet">

<g transform="translate(0.000000,124.000000) scale(0.100000,-0.100000)"
fill="#000000" stroke="none">
<path d="M690 1103 c-8 -3 -28 -11 -45 -19 -16 -7 -59 -25 -95 -39 -36 -14
-79 -33 -97 -41 -17 -8 -35 -14 -40 -14 -4 -1 -26 -9 -48 -20 -66 -32 -107
-26 -227 36 -14 8 -31 14 -37 14 -8 0 -11 -51 -11 -160 l0 -159 39 -11 c22 -6
52 -17 68 -25 15 -8 35 -15 43 -15 8 0 28 -7 44 -15 33 -17 59 -19 84 -5 9 5
67 30 127 56 215 90 254 109 273 132 18 23 15 49 -10 72 l-22 20 33 0 c18 0
49 -7 69 -16 21 -9 55 -25 77 -35 22 -10 52 -21 68 -25 15 -3 30 -10 33 -15 2
-5 23 -13 45 -19 33 -9 45 -8 65 5 24 15 31 48 16 72 -10 16 -185 117 -372
215 -35 18 -53 21 -80 11z"/>
<path d="M745 596 c-75 -35 -135 -107 -135 -163 0 -10 -9 -24 -21 -31 -29 -18
-23 -76 9 -80 12 -2 22 -8 22 -14 0 -19 60 -87 98 -110 54 -33 162 -32 217 2
39 24 70 55 91 92 6 11 21 25 35 31 31 16 37 55 11 76 -11 9 -27 38 -37 64
-25 66 -70 111 -135 136 -69 26 -92 26 -155 -3z m31 -150 c29 -30 10 -76 -31
-76 -27 0 -45 18 -45 45 0 41 46 60 76 31z m167 -7 c5 -9 7 -28 3 -42 -5 -22
-12 -27 -36 -27 -32 0 -46 25 -36 66 5 20 12 25 33 22 14 -2 30 -10 36 -19z
m-35 -161 c-3 -7 -22 -19 -43 -26 -31 -10 -46 -10 -79 1 -71 24 -57 37 39 37
65 0 86 -3 83 -12z"/>
</g>
</svg>
