<?xml version="1.0" standalone="no"?>
<!DOCTYPE svg PUBLIC "-//W3C//DTD SVG 20010904//EN"
 "http://www.w3.org/TR/2001/REC-SVG-20010904/DTD/svg10.dtd">
<svg version="1.0" xmlns="http://www.w3.org/2000/svg"
 width="124.000000pt" height="124.000000pt" viewBox="0 0 124.000000 124.000000"
 preserveAspectRatio="xMidYMid meet">

<g transform="translate(0.000000,124.000000) scale(0.100000,-0.100000)"
fill="#000000" stroke="none">
<path d="M537 1101 c-48 -10 -105 -56 -130 -105 -19 -36 -25 -100 -19 -201 0
-16 1 -48 0 -69 -1 -28 4 -44 19 -55 11 -9 23 -28 26 -41 3 -14 20 -40 37 -58
24 -27 30 -42 30 -78 0 -30 -5 -46 -15 -50 -8 -3 -17 -13 -20 -22 -5 -19 -43
-38 -113 -57 -56 -15 -118 -42 -138 -58 -43 -35 -63 -64 -73 -103 -20 -80 -35
-74 198 -74 l209 0 7 32 c4 18 12 39 18 46 14 18 15 111 1 120 -19 13 -24 40
-8 46 9 3 40 6 70 6 49 0 54 2 60 25 3 14 13 29 21 34 9 4 17 28 20 55 4 34
14 57 35 79 16 18 32 43 35 57 3 13 15 32 26 41 15 11 20 27 19 55 -1 21 0 53
0 69 5 85 0 164 -13 190 -8 17 -33 41 -60 55 -25 14 -58 34 -73 44 -31 22
-109 29 -169 17z"/>
<path d="M970 469 c-14 -20 -40 -25 -85 -17 -15 2 -21 -3 -23 -21 -5 -31 -22
-48 -53 -53 -18 -2 -23 -8 -21 -23 8 -45 3 -70 -17 -86 -26 -21 -27 -36 -2
-44 22 -7 32 -45 19 -70 -12 -20 -2 -49 12 -40 18 11 60 -23 60 -50 0 -29 16
-41 35 -25 20 17 73 3 80 -21 8 -24 32 -25 40 0 7 23 52 36 70 21 19 -16 47
-1 40 21 -8 24 30 62 54 54 22 -7 37 21 21 40 -15 18 -2 63 21 70 25 8 24 32
0 40 -24 7 -38 60 -21 80 16 19 4 35 -25 35 -27 0 -61 42 -50 60 9 14 -20 24
-40 12 -25 -13 -63 -3 -70 19 -8 25 -26 24 -45 -2z m70 -105 c49 -20 80 -67
80 -122 0 -33 -7 -46 -41 -81 -35 -34 -48 -41 -81 -41 -69 0 -106 32 -131 112
-16 47 32 121 89 138 40 12 39 12 84 -6z"/>
<path d="M965 270 c-18 -20 -18 -21 1 -41 36 -35 81 5 48 42 -22 24 -27 24
-49 -1z"/>
</g>
</svg>
