<?xml version="1.0" standalone="no"?>
<!DOCTYPE svg PUBLIC "-//W3C//DTD SVG 20010904//EN"
 "http://www.w3.org/TR/2001/REC-SVG-20010904/DTD/svg10.dtd">
<svg version="1.0" xmlns="http://www.w3.org/2000/svg"
 width="120.000000pt" height="120.000000pt" viewBox="0 0 120.000000 120.000000"
 preserveAspectRatio="xMidYMid meet">

<g transform="translate(0.000000,120.000000) scale(0.100000,-0.100000)"
fill="#000000" stroke="none">
<path d="M540 1070 c0 -5 -22 -10 -50 -10 -27 0 -50 -4 -50 -10 0 -5 -9 -10
-20 -10 -11 0 -20 -4 -20 -10 0 -5 -9 -10 -20 -10 -11 0 -20 -4 -20 -10 0 -5
-7 -10 -15 -10 -20 0 -145 -125 -145 -145 0 -8 -4 -15 -10 -15 -5 0 -10 -9
-10 -20 0 -11 -4 -20 -10 -20 -5 0 -10 -9 -10 -20 0 -11 -4 -20 -10 -20 -5 0
-10 -22 -10 -50 0 -27 -4 -50 -10 -50 -6 0 -10 -27 -10 -60 0 -33 4 -60 10
-60 6 0 10 -22 10 -50 0 -27 5 -50 10 -50 6 0 10 -9 10 -20 0 -11 5 -20 10
-20 6 0 10 -9 10 -20 0 -11 5 -20 10 -20 6 0 10 -7 10 -15 0 -20 125 -145 145
-145 8 0 15 -4 15 -10 0 -5 9 -10 20 -10 11 0 20 -4 20 -10 0 -5 9 -10 20 -10
11 0 20 -4 20 -10 0 -5 23 -10 50 -10 28 0 50 -4 50 -10 0 -6 30 -10 70 -10
40 0 70 4 70 10 0 6 7 10 16 10 20 0 44 24 44 44 0 9 5 16 10 16 6 0 10 38 10
95 0 88 2 98 25 120 23 23 31 25 130 25 63 0 105 4 105 10 0 6 9 10 20 10 13
0 20 7 20 20 0 11 5 20 10 20 6 0 10 33 10 80 0 47 -4 80 -10 80 -5 0 -10 23
-10 50 0 28 -4 50 -10 50 -5 0 -10 9 -10 20 0 11 -4 20 -10 20 -5 0 -10 9 -10
20 0 11 -4 20 -10 20 -5 0 -10 7 -10 15 0 20 -125 145 -145 145 -8 0 -15 5
-15 10 0 6 -9 10 -20 10 -11 0 -20 5 -20 10 0 6 -9 10 -20 10 -11 0 -20 5 -20
10 0 6 -22 10 -50 10 -27 0 -50 5 -50 10 0 6 -27 10 -60 10 -33 0 -60 -4 -60
-10z m115 -95 c33 -32 33 -78 0 -110 -72 -73 -183 35 -112 110 30 33 80 33
112 0z m-275 -65 c0 -5 7 -10 15 -10 25 0 65 -46 65 -75 0 -14 -4 -25 -10 -25
-5 0 -10 -9 -10 -20 0 -13 -7 -20 -20 -20 -11 0 -20 -4 -20 -10 0 -5 -11 -10
-25 -10 -28 0 -75 40 -75 64 0 8 -6 17 -12 20 -10 5 -10 7 0 12 6 3 12 12 12
21 0 19 24 43 44 43 9 0 16 5 16 10 0 6 5 10 10 10 6 0 10 -4 10 -10z m460 0
c0 -5 7 -10 16 -10 20 0 44 -24 44 -43 0 -9 6 -18 13 -21 10 -5 10 -7 0 -12
-7 -3 -13 -12 -13 -20 0 -24 -47 -64 -75 -64 -14 0 -25 5 -25 10 0 6 -7 10
-16 10 -47 0 -60 75 -19 115 13 14 31 25 40 25 8 0 15 5 15 10 0 6 5 10 10 10
6 0 10 -4 10 -10z m-505 -255 c33 -32 33 -78 0 -110 -72 -73 -183 35 -112 110
30 33 80 33 112 0z m640 0 c33 -32 33 -78 0 -110 -72 -73 -183 35 -112 110 30
33 80 33 112 0z m-320 -280 c36 -35 36 -115 0 -150 -35 -36 -115 -36 -150 0
-34 33 -35 115 -2 150 32 35 118 35 152 0z"/>
</g>
</svg>
