<?xml version="1.0" standalone="no"?>
<!DOCTYPE svg PUBLIC "-//W3C//DTD SVG 20010904//EN"
 "http://www.w3.org/TR/2001/REC-SVG-20010904/DTD/svg10.dtd">
<svg version="1.0" xmlns="http://www.w3.org/2000/svg"
 width="500.000000pt" height="500.000000pt" viewBox="0 0 500.000000 500.000000"
 preserveAspectRatio="xMidYMid meet">

<g transform="translate(0.000000,500.000000) scale(0.100000,-0.100000)"
fill="#000000" stroke="none">
<path d="M2360 4584 c-487 -46 -910 -238 -1235 -559 -211 -209 -356 -427 -456
-684 -34 -88 -39 -96 -65 -99 -101 -9 -168 -27 -253 -68 -127 -62 -219 -152
-278 -274 -55 -112 -66 -171 -61 -310 3 -85 10 -131 26 -174 84 -231 287 -390
527 -414 l67 -7 37 -95 c80 -203 184 -376 334 -556 215 -256 526 -469 849
-582 102 -36 109 -40 138 -84 70 -105 208 -203 345 -244 82 -25 248 -25 330 0
138 41 277 140 344 244 29 45 35 49 131 81 538 182 982 608 1191 1141 l37 95
67 7 c155 15 303 91 404 206 57 64 123 190 142 272 17 71 17 209 0 280 -7 30
-31 93 -54 140 -95 196 -287 320 -531 342 -26 3 -31 11 -65 98 -230 589 -729
1028 -1346 1185 -71 18 -152 36 -180 39 l-50 7 -195 -302 c-107 -166 -207
-323 -223 -349 -74 -129 -1 -270 140 -270 70 0 100 24 217 169 107 134 140
157 208 148 103 -14 160 -129 107 -216 -52 -85 -220 -280 -271 -314 -237 -157
-554 -75 -678 176 -63 129 -64 287 -2 406 16 31 101 167 187 301 162 251 173
271 159 268 -5 0 -25 -3 -44 -4z m-405 -1520 c77 -19 134 -53 191 -112 93 -97
140 -258 95 -330 -33 -52 -77 -74 -139 -69 -69 5 -115 47 -132 119 -17 67 -58
108 -111 108 -77 0 -111 -33 -128 -122 -11 -65 -35 -96 -88 -120 -51 -22 -89
-19 -139 11 -73 44 -83 163 -25 287 86 184 284 279 476 228z m1277 5 c170 -36
309 -190 325 -361 7 -77 -13 -130 -61 -159 -50 -30 -88 -33 -140 -11 -54 24
-81 64 -90 132 -9 71 -50 110 -116 110 -40 0 -53 -5 -78 -30 -18 -18 -34 -49
-42 -78 -17 -72 -63 -114 -132 -119 -62 -5 -106 17 -139 69 -45 71 2 233 94
329 102 106 237 148 379 118z m-1282 -896 c14 -10 50 -37 80 -62 64 -52 189
-114 280 -138 89 -24 291 -24 380 0 91 24 216 86 280 138 90 73 101 79 151 79
62 0 108 -32 132 -91 35 -84 1 -145 -138 -244 -217 -156 -520 -227 -783 -185
-252 41 -559 219 -593 342 -15 56 11 122 60 155 42 28 115 31 151 6z"/>
</g>
</svg>
