<?xml version="1.0" standalone="no"?>
<!DOCTYPE svg PUBLIC "-//W3C//DTD SVG 20010904//EN"
 "http://www.w3.org/TR/2001/REC-SVG-20010904/DTD/svg10.dtd">
<svg version="1.0" xmlns="http://www.w3.org/2000/svg"
 width="100.000000pt" height="100.000000pt" viewBox="0 0 100.000000 100.000000"
 preserveAspectRatio="xMidYMid meet">

<g transform="translate(0.000000,100.000000) scale(0.100000,-0.100000)"
fill="#000000" stroke="none">
<path d="M500 790 c-62 -77 -115 -140 -119 -140 -3 0 -53 47 -111 105 -99 99
-130 121 -130 92 0 -16 691 -707 708 -707 28 0 6 31 -98 135 l-110 110 65 80
c90 112 89 114 -43 117 l-109 3 47 165 c26 91 46 168 43 173 -12 21 -40 -5
-143 -133z"/>
<path d="M282 517 c-76 -95 -74 -97 58 -97 61 0 110 -4 110 -9 0 -5 -20 -75
-45 -156 -54 -177 -54 -178 -34 -183 11 -2 49 38 111 115 52 65 97 123 101
129 3 6 -52 68 -122 138 l-128 128 -51 -65z"/>
</g>
</svg>
