<?xml version="1.0" standalone="no"?>
<!DOCTYPE svg PUBLIC "-//W3C//DTD SVG 20010904//EN"
 "http://www.w3.org/TR/2001/REC-SVG-20010904/DTD/svg10.dtd">
<svg version="1.0" xmlns="http://www.w3.org/2000/svg"
 width="124.000000pt" height="124.000000pt" viewBox="0 0 124.000000 124.000000"
 preserveAspectRatio="xMidYMid meet">

<g transform="translate(0.000000,124.000000) scale(0.100000,-0.100000)"
fill="#000000" stroke="none">
<path d="M555 1101 c-112 -30 -175 -121 -175 -251 1 -82 14 -126 55 -176 97
-118 272 -119 368 -2 41 50 57 101 57 178 0 54 -16 130 -29 140 -3 3 -14 17
-23 31 -39 62 -169 103 -253 80z"/>
<path d="M954 805 c-13 -34 46 -116 115 -159 48 -31 77 -33 86 -6 11 36 -61
136 -122 168 -31 17 -73 15 -79 -3z"/>
<path d="M891 519 c-45 -14 -80 -36 -114 -73 -45 -50 -45 -51 -58 -115 -11
-49 -11 -73 0 -122 14 -67 17 -74 78 -133 28 -28 59 -46 100 -59 74 -22 89
-22 160 4 78 29 142 94 166 170 21 69 21 79 0 148 -34 113 -119 180 -237 187
-33 2 -76 -1 -95 -7z m26 -157 c13 -28 14 -38 4 -54 -11 -18 -9 -25 21 -55 28
-30 38 -34 67 -29 35 5 77 -11 100 -37 10 -13 7 -20 -16 -41 -15 -14 -36 -26
-47 -26 -66 0 -226 166 -226 235 0 7 12 24 26 39 31 30 44 24 71 -32z"/>
<path d="M395 405 c-156 -56 -220 -103 -220 -165 0 -22 6 -45 13 -52 10 -10
70 -14 225 -16 l212 -3 0 100 0 101 -35 0 c-19 0 -58 13 -85 28 l-50 28 -60
-21z"/>
</g>
</svg>
