<?xml version="1.0" standalone="no"?>
<!DOCTYPE svg PUBLIC "-//W3C//DTD SVG 20010904//EN"
 "http://www.w3.org/TR/2001/REC-SVG-20010904/DTD/svg10.dtd">
<svg version="1.0" xmlns="http://www.w3.org/2000/svg"
 width="124.000000pt" height="124.000000pt" viewBox="0 0 124.000000 124.000000"
 preserveAspectRatio="xMidYMid meet">

<g transform="translate(0.000000,124.000000) scale(0.100000,-0.100000)"
fill="#000000" stroke="none">
<path d="M298 1184 c-15 -8 -32 -23 -38 -34 -14 -26 -14 -1034 0 -1061 25 -45
51 -49 362 -49 274 0 295 1 325 20 38 23 45 45 41 122 l-3 56 -35 -17 c-31
-14 -35 -21 -38 -59 l-3 -42 -290 0 -289 0 0 500 0 500 66 0 c52 0 70 -4 80
-17 11 -16 30 -18 144 -18 114 0 133 2 144 18 10 13 28 17 79 17 l66 0 3 -42
c3 -38 7 -45 38 -59 l35 -17 3 56 c4 77 -3 99 -41 122 -30 19 -51 20 -327 20
-241 -1 -300 -4 -322 -16z m360 -46 c-3 -20 -10 -23 -51 -26 -51 -3 -79 10
-70 34 4 10 22 14 65 14 56 0 59 -1 56 -22z m88 11 c3 -6 0 -18 -9 -26 -18
-18 -37 -9 -37 18 0 21 34 27 46 8z"/>
<path d="M838 883 c-15 -32 -50 -41 -85 -22 -20 11 -26 11 -33 -1 -4 -7 -6
-19 -3 -27 9 -22 -37 -63 -69 -63 -31 0 -36 -17 -16 -49 15 -25 -4 -71 -32
-78 -26 -7 -26 -39 0 -46 28 -7 47 -53 32 -78 -20 -32 -15 -49 16 -49 32 0 78
-41 69 -63 -3 -8 -1 -20 3 -27 7 -12 13 -12 33 -1 32 17 67 11 81 -14 21 -38
43 -45 53 -17 4 9 14 22 22 29 19 15 71 17 71 3 0 -5 9 -10 20 -10 15 0 20 7
20 28 0 33 36 72 68 72 26 0 38 18 23 33 -25 25 -3 97 30 97 5 0 9 9 9 20 0
11 -4 20 -9 20 -33 0 -55 72 -30 97 16 16 2 33 -25 33 -30 0 -66 40 -66 73 0
20 -5 27 -20 27 -11 0 -20 -4 -20 -10 0 -14 -52 -12 -71 3 -8 7 -18 20 -22 30
-10 26 -34 21 -49 -10z m95 -109 c95 -48 131 -138 88 -222 -47 -91 -140 -125
-228 -82 -64 31 -88 72 -88 150 0 52 5 71 23 98 46 63 139 89 205 56z"/>
<path d="M846 644 c-9 -8 -16 -19 -16 -24 0 -11 29 -40 39 -40 4 0 16 9 26 20
17 19 17 21 0 40 -22 24 -29 25 -49 4z"/>
</g>
</svg>
