<?xml version="1.0" standalone="no"?>
<!DOCTYPE svg PUBLIC "-//W3C//DTD SVG 20010904//EN"
 "http://www.w3.org/TR/2001/REC-SVG-20010904/DTD/svg10.dtd">
<svg version="1.0" xmlns="http://www.w3.org/2000/svg"
 width="360.000000pt" height="361.000000pt" viewBox="0 0 360.000000 361.000000"
 preserveAspectRatio="xMidYMid meet">

<g transform="translate(0.000000,361.000000) scale(0.100000,-0.100000)"
fill="#000000" stroke="none">
<path d="M1545 3590 c-210 -20 -552 -151 -752 -287 -170 -115 -379 -325 -495
-498 -113 -169 -221 -427 -267 -638 -24 -109 -34 -402 -21 -577 22 -290 166
-638 374 -905 85 -108 260 -275 376 -358 171 -121 462 -248 685 -299 43 -9
145 -13 360 -13 296 0 301 0 401 27 289 78 502 181 709 343 92 72 250 232 318
322 158 207 277 468 337 738 20 89 23 128 23 350 0 288 -8 350 -78 560 -125
380 -351 691 -671 921 -108 78 -354 202 -484 244 -193 63 -245 71 -500 75
-129 2 -271 0 -315 -5z m380 -200 c309 -23 567 -120 824 -308 304 -223 545
-604 617 -972 14 -74 18 -142 18 -310 0 -239 -14 -334 -75 -506 -38 -107 -134
-314 -146 -314 -5 0 -25 16 -44 36 -54 57 -184 138 -340 213 -145 70 -390 171
-414 171 -7 0 -40 -22 -72 -48 -126 -105 -251 -172 -357 -191 -75 -14 -206
-14 -277 -1 -30 6 -90 27 -134 49 -76 36 -224 138 -254 174 -7 9 -22 17 -32
17 -30 0 -313 -116 -442 -180 -143 -72 -242 -135 -308 -197 -33 -31 -53 -43
-60 -36 -16 16 -114 241 -143 330 -49 147 -67 256 -73 438 -4 130 -2 197 11
282 38 258 141 505 299 719 71 96 256 277 353 347 246 174 577 288 859 296 28
0 113 -4 190 -9z"/>
<path d="M1640 2954 c-30 -8 -98 -35 -150 -61 -254 -125 -420 -425 -396 -718
13 -152 54 -288 128 -425 141 -260 336 -411 553 -427 384 -29 780 516 725 999
-21 184 -94 323 -242 464 -131 124 -285 185 -467 183 -53 0 -121 -7 -151 -15z"/>
</g>
</svg>
