<?xml version="1.0" standalone="no"?>
<!DOCTYPE svg PUBLIC "-//W3C//DTD SVG 20010904//EN"
 "http://www.w3.org/TR/2001/REC-SVG-20010904/DTD/svg10.dtd">
<svg version="1.0" xmlns="http://www.w3.org/2000/svg"
 width="124.000000pt" height="124.000000pt" viewBox="0 0 124.000000 124.000000"
 preserveAspectRatio="xMidYMid meet">

<g transform="translate(0.000000,124.000000) scale(0.100000,-0.100000)"
fill="#000000" stroke="none">
<path d="M520 1100 c-79 -13 -180 -68 -246 -134 -191 -191 -190 -504 2 -692
165 -163 420 -188 619 -62 26 17 117 107 133 133 126 202 101 457 -62 621
-116 116 -273 163 -446 134z m308 -437 l2 -202 -27 -25 c-20 -19 -39 -26 -67
-26 -48 0 -76 23 -76 63 0 39 26 67 61 67 56 0 59 5 59 104 l0 92 -77 -8 c-43
-4 -105 -11 -138 -15 l-60 -8 -5 -147 c-5 -139 -6 -147 -29 -167 -30 -26 -96
-28 -123 -4 -22 20 -23 70 -1 95 9 10 29 18 44 18 59 0 59 -1 59 165 0 110 3
155 13 162 6 6 41 13 77 17 36 4 90 10 120 15 30 5 80 8 110 7 l55 -1 3 -202z"/>
</g>
</svg>
