<?xml version="1.0" standalone="no"?>
<!DOCTYPE svg PUBLIC "-//W3C//DTD SVG 20010904//EN"
 "http://www.w3.org/TR/2001/REC-SVG-20010904/DTD/svg10.dtd">
<svg version="1.0" xmlns="http://www.w3.org/2000/svg"
 width="124.000000pt" height="124.000000pt" viewBox="0 0 124.000000 124.000000"
 preserveAspectRatio="xMidYMid meet">

<g transform="translate(0.000000,124.000000) scale(0.100000,-0.100000)"
fill="#000000" stroke="none">
<path d="M153 1084 c-21 -21 -24 -32 -20 -62 4 -20 13 -40 22 -44 13 -8 15
-63 15 -437 0 -379 2 -430 16 -442 22 -18 48 0 54 37 l5 29 375 0 375 0 5 -29
c6 -37 32 -55 54 -37 14 12 16 63 16 443 0 368 2 429 15 434 19 8 30 67 16 93
-29 54 -105 52 -135 -3 -16 -31 -17 -36 -2 -64 9 -17 20 -34 26 -37 5 -3 10
-17 10 -31 l0 -24 -380 0 -380 0 0 24 c0 14 4 27 9 31 6 3 17 20 26 37 15 30
14 35 -2 65 -27 50 -79 58 -120 17z m177 -439 l0 -185 40 0 40 0 0 185 0 185
45 0 45 0 0 -185 0 -185 40 0 40 0 0 185 0 185 40 0 40 0 0 -185 0 -185 40 0
40 0 0 185 0 185 45 0 45 0 0 -185 0 -185 40 0 40 0 0 186 0 185 43 -3 42 -3
0 -225 0 -225 -375 0 -375 0 -3 215 c-1 118 0 220 2 227 3 8 22 13 46 13 l40
0 0 -185z"/>
</g>
</svg>
